<svg xmlns="http://www.w3.org/2000/svg" version="1.1" xmlns:xlink="http://www.w3.org/1999/xlink" width="200" height="200"><svg xmlns="http://www.w3.org/2000/svg" version="1.1" xmlns:xlink="http://www.w3.org/1999/xlink" width="200" height="200"><svg xmlns="http://www.w3.org/2000/svg" version="1.1" xmlns:xlink="http://www.w3.org/1999/xlink" viewBox="0 0 200 200"><rect width="200" height="200" fill="url('#gradient')"></rect><defs><linearGradient id="gradient" gradientTransform="rotate(103 0.5 0.5)"><stop offset="0%" stop-color="#ff953e"></stop><stop offset="100%" stop-color="#c8512e"></stop></linearGradient></defs><g><g fill="#0e2c73" transform="matrix(2.966001899335233,0,0,2.966001899335233,37.00188210043359,121.09253064180032)" stroke="#000000" stroke-width="0.25"><path d="M9.17-4.81L12.58-4.81Q12.51-3.33 11.78-2.19Q11.04-1.05 9.72-0.43Q8.40 0.20 6.70 0.20L6.70 0.20Q3.90 0.20 2.29-1.63Q0.67-3.46 0.67-6.79L0.67-6.79L0.67-7.49Q0.67-9.58 1.40-11.15Q2.13-12.71 3.50-13.57Q4.86-14.42 6.66-14.42L6.66-14.42Q9.25-14.42 10.82-13.06Q12.39-11.70 12.61-9.31L12.61-9.31L9.19-9.31Q9.15-10.61 8.54-11.17Q7.92-11.74 6.66-11.74L6.66-11.74Q5.38-11.74 4.79-10.78Q4.19-9.82 4.16-7.72L4.16-7.72L4.16-6.72Q4.16-4.44 4.73-3.47Q5.30-2.49 6.70-2.49L6.70-2.49Q7.88-2.49 8.51-3.05Q9.13-3.60 9.17-4.81L9.17-4.81ZM13.64-4.82L13.63-5.38Q13.63-6.96 14.25-8.20Q14.86-9.43 16.02-10.10Q17.17-10.76 18.72-10.76L18.72-10.76Q21.09-10.76 22.46-9.29Q23.83-7.82 23.83-5.29L23.83-5.29L23.83-5.18Q23.83-2.71 22.46-1.25Q21.08 0.20 18.74 0.20L18.74 0.20Q16.48 0.20 15.12-1.16Q13.75-2.51 13.64-4.82L13.64-4.82ZM16.93-5.77L16.92-5.18Q16.92-3.71 17.38-3.03Q17.84-2.34 18.74-2.34L18.74-2.34Q20.50-2.34 20.54-5.05L20.54-5.05L20.54-5.38Q20.54-8.22 18.72-8.22L18.72-8.22Q17.07-8.22 16.93-5.77L16.93-5.77ZM31.73-10.64L31.67-7.59L30.59-7.67Q29.03-7.67 28.59-6.69L28.59-6.69L28.59 0L25.30 0L25.30-10.57L28.39-10.57L28.50-9.21Q29.33-10.76 30.81-10.76L30.81-10.76Q31.34-10.76 31.73-10.64L31.73-10.64ZM41.81 0L38.52 0Q38.34-0.32 38.20-0.95L38.20-0.95Q37.29 0.20 35.66 0.20L35.66 0.20Q34.17 0.20 33.13-0.71Q32.08-1.61 32.08-2.98L32.08-2.98Q32.08-4.70 33.35-5.58Q34.62-6.46 37.04-6.46L37.04-6.46L38.06-6.46L38.06-7.01Q38.06-8.47 36.80-8.47L36.80-8.47Q35.63-8.47 35.63-7.31L35.63-7.31L32.33-7.31Q32.33-8.85 33.64-9.80Q34.94-10.76 36.96-10.76Q38.98-10.76 40.16-9.78Q41.33-8.79 41.36-7.07L41.36-7.07L41.36-2.39Q41.38-0.94 41.81-0.17L41.81-0.17L41.81 0ZM36.46-2.15L36.46-2.15Q37.07-2.15 37.48-2.41Q37.88-2.68 38.06-3.01L38.06-3.01L38.06-4.70L37.10-4.70Q35.38-4.70 35.38-3.15L35.38-3.15Q35.38-2.71 35.68-2.43Q35.99-2.15 36.46-2.15Z"></path></g></g></svg></svg><style>@media (prefers-color-scheme: light) { :root { filter: contrast(1) brightness(1); } }
@media (prefers-color-scheme: dark) { :root { filter: none; } }
</style></svg>